<svg width="30" height="30" viewBox="0 0 30 30" fill="none" xmlns="http://www.w3.org/2000/svg">
<path d="M3.00002 7C2.86751 6.99813 2.73595 7.02261 2.61298 7.07202C2.49001 7.12144 2.37809 7.1948 2.28372 7.28784C2.18935 7.38089 2.11441 7.49176 2.06327 7.61401C2.01212 7.73627 1.98578 7.86748 1.98578 8C1.98578 8.13253 2.01212 8.26373 2.06327 8.38599C2.11441 8.50824 2.18935 8.61912 2.28372 8.71216C2.37809 8.80521 2.49001 8.87857 2.61298 8.92798C2.73595 8.97739 2.86751 9.00187 3.00002 9H27C27.1325 9.00187 27.2641 8.97739 27.3871 8.92798C27.51 8.87857 27.622 8.80521 27.7163 8.71216C27.8107 8.61912 27.8856 8.50824 27.9368 8.38599C27.9879 8.26373 28.0143 8.13253 28.0143 8C28.0143 7.86748 27.9879 7.73627 27.9368 7.61401C27.8856 7.49176 27.8107 7.38089 27.7163 7.28784C27.622 7.1948 27.51 7.12144 27.3871 7.07202C27.2641 7.02261 27.1325 6.99813 27 7H3.00002ZM3.00002 14C2.86751 13.9981 2.73595 14.0226 2.61298 14.072C2.49001 14.1214 2.37809 14.1948 2.28372 14.2878C2.18935 14.3809 2.11441 14.4918 2.06327 14.614C2.01212 14.7363 1.98578 14.8675 1.98578 15C1.98578 15.1325 2.01212 15.2637 2.06327 15.386C2.11441 15.5082 2.18935 15.6191 2.28372 15.7122C2.37809 15.8052 2.49001 15.8786 2.61298 15.928C2.73595 15.9774 2.86751 16.0019 3.00002 16H27C27.1325 16.0019 27.2641 15.9774 27.3871 15.928C27.51 15.8786 27.622 15.8052 27.7163 15.7122C27.8107 15.6191 27.8856 15.5082 27.9368 15.386C27.9879 15.2637 28.0143 15.1325 28.0143 15C28.0143 14.8675 27.9879 14.7363 27.9368 14.614C27.8856 14.4918 27.8107 14.3809 27.7163 14.2878C27.622 14.1948 27.51 14.1214 27.3871 14.072C27.2641 14.0226 27.1325 13.9981 27 14H3.00002ZM3.00002 21C2.86751 20.9981 2.73595 21.0226 2.61298 21.072C2.49001 21.1214 2.37809 21.1948 2.28372 21.2878C2.18935 21.3809 2.11441 21.4918 2.06327 21.614C2.01212 21.7363 1.98578 21.8675 1.98578 22C1.98578 22.1325 2.01212 22.2637 2.06327 22.386C2.11441 22.5082 2.18935 22.6191 2.28372 22.7122C2.37809 22.8052 2.49001 22.8786 2.61298 22.928C2.73595 22.9774 2.86751 23.0019 3.00002 23H27C27.1325 23.0019 27.2641 22.9774 27.3871 22.928C27.51 22.8786 27.622 22.8052 27.7163 22.7122C27.8107 22.6191 27.8856 22.5082 27.9368 22.386C27.9879 22.2637 28.0143 22.1325 28.0143 22C28.0143 21.8675 27.9879 21.7363 27.9368 21.614C27.8856 21.4918 27.8107 21.3809 27.7163 21.2878C27.622 21.1948 27.51 21.1214 27.3871 21.072C27.2641 21.0226 27.1325 20.9981 27 21H3.00002Z" fill="white"/>
</svg>
