<svg width="19" height="19" viewBox="0 0 19 19" fill="none" xmlns="http://www.w3.org/2000/svg">
<path d="M9.49881 0C4.25363 0 0 4.36103 0 9.74077C0 14.0436 2.72175 17.694 6.498 18.9831C6.973 19.0729 7.14638 18.7721 7.14638 18.5138C7.14638 18.2821 7.13806 17.6697 7.13331 16.8572C4.49113 17.4453 3.933 15.551 3.933 15.551C3.50194 14.4256 2.8785 14.1261 2.8785 14.1261C2.01519 13.5221 2.94262 13.5342 2.94262 13.5342C3.89619 13.6034 4.39731 14.5384 4.39731 14.5384C5.24519 16.0264 6.6215 15.5971 7.163 15.3473C7.2485 14.7179 7.49431 14.2886 7.76625 14.0448C5.65725 13.7986 3.439 12.963 3.439 9.23142C3.439 8.16784 3.8095 7.2983 4.4175 6.61674C4.31894 6.37055 3.99356 5.37974 4.51013 4.03966C4.51013 4.03966 5.30813 3.7777 7.12263 5.03775C7.88025 4.82188 8.6925 4.71394 9.50119 4.7103C10.3075 4.71516 11.1209 4.82188 11.8797 5.03896C13.6931 3.77892 14.4899 4.04087 14.4899 4.04087C15.0076 5.38217 14.6822 6.37177 14.5849 6.61795C15.1941 7.29952 15.561 8.16905 15.561 9.23263C15.561 12.974 13.3404 13.7974 11.2242 14.0387C11.5651 14.3395 11.8691 14.9338 11.8691 15.8421C11.8691 17.1446 11.8572 18.1948 11.8572 18.5138C11.8572 18.7745 12.0282 19.0777 12.5103 18.9819C16.2806 17.6915 19 14.0424 19 9.74077C19 4.36103 14.7464 0 9.49881 0Z" fill="white"/>
</svg>
