<svg width="19" height="19" viewBox="0 0 19 19" fill="none" xmlns="http://www.w3.org/2000/svg">
<path d="M17.9507 0H1.04867C0.469901 0 0 0.468962 0 1.04867V17.9507C0 18.5304 0.469901 19 1.04867 19H10.1482V11.6421H7.67233V8.77419H10.1482V6.65932C10.1482 4.20564 11.6465 2.86883 13.8358 2.86883C14.8854 2.86883 15.7855 2.94736 16.0479 2.98146V5.5462L14.5294 5.54683C13.339 5.54683 13.1093 6.11277 13.1093 6.94276V8.77325H15.9494L15.578 11.6408H13.109V18.9991H17.9504C18.5298 18.9991 19 18.5288 19 17.9507V1.04805C18.9997 0.468962 18.5301 0 17.9507 0Z" fill="white"/>
</svg>
